# xmcd
#
# Track frame offsets:
# 150
# 12180
# 23912
# 37096
# 47249
# 60580
# 77286
# 88889
# 98056
# 114790
#
# Disc length: 1758 seconds
#
#
# Revision: 0
# Processed by: cddbd v1.5.1PL2 Copyright (c) Steve Scherf et al.
# Submitted via: FreeRIP 2.944 
#
DISCID=6f06dc0a
DTITLE=Various Country - Love Love Love - Country Love and Heart...break
DYEAR=2005
DGENRE=Country
TTITLE0=You're The Nearest Thing To Heaven - Johnny Cash
TTITLE1=Walking After Midnight - Patsy Cline
TTITLE2=Hey Good Lookin' - Hank Williams
TTITLE3=Walk Through This World With Me - George Jones
TTITLE4=She's All I Got - Johnny Paycheck
TTITLE5=You're The Best Thing That Ever Happened To Me - Ray Price
TTITLE6=Baby We're Really In Love - Hank Williams
TTITLE7=Love Love Love - Webb Pierce
TTITLE8=Today I Started Loving You Again - Merle Haggard
TTITLE9=For The Good Times - Ray Price
EXTD=3 CD Collection From\nDirect Source Special Products, Inc.
EXTT0=
EXTT1=
EXTT2=
EXTT3=
EXTT4=
EXTT5=
EXTT6=
EXTT7=
EXTT8=
EXTT9=
PLAYORDER=
